<svg width="256" height="144" viewBox="0 0 256 144" fill="none" xmlns="http://www.w3.org/2000/svg">
<rect width="256" height="144" fill="#E4E4E7"/>
<rect x="118.5" y="17.5" width="20" height="20" rx="10" fill="#22D3EE" stroke="black"/>
<rect x="83.5" y="59.5" width="20" height="20" rx="10" fill="#E879F9" stroke="black"/>
<rect x="83.5" y="103.5" width="20" height="20" rx="10" fill="#FACC15" stroke="black"/>
<rect x="118.5" y="59.5" width="20" height="20" rx="10" fill="#FB923C" stroke="black"/>
<rect x="118.5" y="103.5" width="20" height="20" rx="10" fill="#818CF8" stroke="black"/>
<rect x="153.5" y="59.5" width="20" height="20" rx="10" fill="#A3E635" stroke="black"/>
<rect x="153.5" y="103.5" width="20" height="20" rx="10" fill="#34D399" stroke="black"/>
<path d="M132.972 39.6895C132.778 39.5046 132.461 39.5215 132.266 39.7272L129.089 43.0787C128.894 43.2844 128.894 43.601 129.089 43.7858C129.284 43.9707 129.6 43.9538 129.795 43.7481L132.619 40.769L135.444 43.4467C135.639 43.6315 135.955 43.6147 136.15 43.409C136.345 43.2033 136.345 42.8867 136.15 42.7019L132.972 39.6895ZM133.119 56.6174L133.119 40.0352L132.12 40.0885L132.12 56.6707L133.119 56.6174Z" fill="black"/>
<path d="M125.932 57.215C126.127 57.3999 126.443 57.383 126.638 57.1773L129.816 53.8258C130.011 53.6201 130.011 53.3035 129.816 53.1187C129.621 52.9338 129.305 52.9507 129.11 53.1563L126.285 56.1355L123.461 53.4578C123.266 53.273 122.95 53.2898 122.755 53.4955C122.56 53.7012 122.56 54.0177 122.755 54.2026L125.932 57.215ZM125.786 40.2871L125.786 56.8693L126.785 56.816L126.785 40.2338L125.786 40.2871Z" fill="black"/>
<path d="M131.972 83.6895C131.778 83.5046 131.461 83.5215 131.266 83.7272L128.089 87.0787C127.894 87.2844 127.894 87.601 128.089 87.7858C128.284 87.9707 128.6 87.9538 128.795 87.7481L131.619 84.769L134.444 87.4467C134.639 87.6315 134.955 87.6147 135.15 87.409C135.345 87.2033 135.345 86.8867 135.15 86.7019L131.972 83.6895ZM132.119 100.617L132.119 84.0352L131.12 84.0885L131.12 100.671L132.119 100.617Z" fill="black"/>
<path d="M124.932 101.215C125.127 101.4 125.443 101.383 125.638 101.177L128.816 97.8258C129.011 97.6201 129.011 97.3035 128.816 97.1187C128.621 96.9338 128.305 96.9507 128.11 97.1563L125.285 100.135L122.461 97.4578C122.266 97.273 121.95 97.2898 121.755 97.4955C121.56 97.7012 121.56 98.0177 121.755 98.2026L124.932 101.215ZM124.786 84.2871L124.786 100.869L125.785 100.816L125.785 84.2338L124.786 84.2871Z" fill="black"/>
<path d="M96.9725 82.6895C96.7775 82.5046 96.4614 82.5215 96.2664 82.7272L93.0889 86.0787C92.894 86.2844 92.894 86.601 93.0889 86.7858C93.2839 86.9707 93.6001 86.9538 93.795 86.7481L96.6194 83.769L99.4439 86.4467C99.6388 86.6315 99.955 86.6147 100.15 86.409C100.345 86.2033 100.345 85.8867 100.15 85.7019L96.9725 82.6895ZM97.1187 99.6174L97.1187 83.0352L96.1202 83.0885L96.1202 99.6707L97.1187 99.6174Z" fill="black"/>
<path d="M89.9322 100.215C90.1272 100.4 90.4433 100.383 90.6383 100.177L93.8157 96.8258C94.0107 96.6201 94.0107 96.3035 93.8157 96.1187C93.6207 95.9338 93.3046 95.9507 93.1096 96.1563L90.2852 99.1355L87.4608 96.4578C87.2658 96.273 86.9497 96.2898 86.7547 96.4955C86.5597 96.7012 86.5597 97.0177 86.7547 97.2026L89.9322 100.215ZM89.7859 83.2871L89.7859 99.8693L90.7845 99.816L90.7845 83.2338L89.7859 83.2871Z" fill="black"/>
<path d="M118.615 36.7986C118.601 36.5277 118.362 36.32 118.082 36.3348L113.51 36.5754C113.229 36.5901 113.013 36.8217 113.028 37.0926C113.042 37.3635 113.281 37.5711 113.561 37.5563L117.625 37.3425L117.832 41.2663C117.846 41.5372 118.085 41.7449 118.366 41.7301C118.646 41.7153 118.862 41.4838 118.848 41.2129L118.615 36.7986ZM98.7584 58.3129L118.485 37.1532L117.73 36.4974L98.0035 57.6571L98.7584 58.3129Z" fill="black"/>
<path d="M92.1824 54.374C92.1967 54.6449 92.4357 54.8526 92.7162 54.8378L97.2881 54.5972C97.5686 54.5825 97.7845 54.3509 97.7703 54.08C97.756 53.8091 97.517 53.6015 97.2365 53.6163L93.1726 53.8301L92.9661 49.9063C92.9519 49.6354 92.7129 49.4278 92.4323 49.4425C92.1518 49.4573 91.9359 49.6888 91.9502 49.9597L92.1824 54.374ZM112.039 32.8597L92.313 54.0194L93.0679 54.6752L112.794 33.5155L112.039 32.8597Z" fill="black"/>
<path d="M159.678 57.4631C159.967 57.505 160.232 57.331 160.269 57.0745L160.873 52.8954C160.91 52.639 160.706 52.3972 160.417 52.3554C160.128 52.3135 159.863 52.4875 159.826 52.744L159.289 56.4587L155.1 55.8527C154.811 55.8109 154.546 55.9849 154.509 56.2413C154.472 56.4978 154.676 56.7396 154.966 56.7814L159.678 57.4631ZM141.582 36.2747L159.327 57.2736L160.163 56.724L142.418 35.7252L141.582 36.2747Z" fill="black"/>
<path d="M163.932 99.9545C164.127 100.139 164.443 100.123 164.638 99.9168L167.816 96.5653C168.011 96.3596 168.011 96.043 167.816 95.8582C167.621 95.6733 167.305 95.6902 167.11 95.8959L164.285 98.875L161.461 96.1973C161.266 96.0125 160.95 96.0294 160.755 96.235C160.56 96.4407 160.56 96.7573 160.755 96.9421L163.932 99.9545ZM163.786 83.0266L163.786 99.6088L164.785 99.5555L164.785 82.9734L163.786 83.0266Z" fill="black"/>
</svg>
