<svg width="256" height="144" viewBox="0 0 256 144" fill="none" xmlns="http://www.w3.org/2000/svg">
<rect width="256" height="144" fill="#E4E4E7"/>
<rect x="71.5" y="25.5" width="20" height="20" rx="10" fill="#22D3EE" stroke="black"/>
<path d="M101.885 59.6377C101.872 59.9136 101.637 60.1263 101.361 60.113L96.8667 59.8953C96.5909 59.882 96.3781 59.6475 96.3915 59.3717C96.4048 59.0959 96.6392 58.8831 96.9151 58.8965L100.91 59.09L101.104 55.0946C101.117 54.8188 101.352 54.6061 101.627 54.6194C101.903 54.6328 102.116 54.8672 102.103 55.143L101.885 59.6377ZM89.3998 45.664L101.756 59.2775L101.015 59.9496L88.6594 46.336L89.3998 45.664Z" fill="black"/>
<path d="M61.5301 59.6377C61.5435 59.9136 61.7779 60.1263 62.0537 60.113L66.5485 59.8953C66.8243 59.882 67.0371 59.6475 67.0237 59.3717C67.0103 59.0959 66.7759 58.8831 66.5001 58.8965L62.5048 59.09L62.3113 55.0946C62.298 54.8188 62.0635 54.6061 61.7877 54.6194C61.5119 54.6328 61.2991 54.8672 61.3125 55.143L61.5301 59.6377ZM74.0153 45.664L61.6593 59.2775L62.3998 59.9496L74.7558 46.336L74.0153 45.664Z" fill="black"/>
<rect x="41.5" y="56.5" width="20" height="20" rx="10" fill="#22D3EE" stroke="black"/>
<rect x="26.5" y="95.5" width="20" height="20" rx="10" fill="#818CF8" stroke="black"/>
<rect x="57.5" y="95.5" width="20" height="20" rx="10" fill="#A3E635" stroke="black"/>
<path d="M39.36 93.9304C39.4576 94.1888 39.7461 94.3191 40.0044 94.2216L44.2143 92.6321C44.4727 92.5346 44.603 92.2461 44.5055 91.9878C44.408 91.7294 44.1195 91.5991 43.8611 91.6966L40.119 93.1095L38.7061 89.3673C38.6086 89.1089 38.3201 88.9786 38.0617 89.0761C37.8034 89.1737 37.673 89.4622 37.7706 89.7205L39.36 93.9304ZM46.9424 76.7941L39.3722 93.5479L40.2834 93.9597L47.8537 77.2059L46.9424 76.7941Z" fill="black"/>
<path d="M63.8658 93.9304C63.7683 94.1888 63.4798 94.3191 63.2214 94.2216L59.0115 92.6321C58.7531 92.5346 58.6228 92.2461 58.7203 91.9878C58.8179 91.7294 59.1064 91.5991 59.3647 91.6966L63.1069 93.1095L64.5197 89.3673C64.6173 89.1089 64.9058 88.9786 65.1641 89.0761C65.4224 89.1737 65.5528 89.4622 65.4553 89.7205L63.8658 93.9304ZM56.2834 76.7941L63.8537 93.5479L62.9424 93.9597L55.3721 77.2059L56.2834 76.7941Z" fill="black"/>
<rect x="41.5" y="56.5" width="20" height="20" rx="10" fill="#22D3EE" stroke="black"/>
<rect x="41.5" y="56.5" width="20" height="20" rx="10" fill="#22D3EE" stroke="black"/>
<rect x="41.5" y="56.5" width="20" height="20" rx="10" fill="#F87171" stroke="black"/>
<rect x="102.5" y="58.5" width="20" height="20" rx="10" fill="#22D3EE" stroke="black"/>
<rect x="87.5" y="97.5" width="20" height="20" rx="10" fill="#FACC15" stroke="black"/>
<rect x="118.5" y="97.5" width="20" height="20" rx="10" fill="#A8A29E" stroke="black"/>
<path d="M100.36 95.9304C100.458 96.1888 100.746 96.3191 101.004 96.2216L105.214 94.6321C105.473 94.5346 105.603 94.2461 105.506 93.9878C105.408 93.7294 105.119 93.5991 104.861 93.6966L101.119 95.1095L99.7061 91.3673C99.6086 91.1089 99.3201 90.9786 99.0617 91.0761C98.8034 91.1737 98.673 91.4622 98.7706 91.7205L100.36 95.9304ZM107.942 78.7941L100.372 95.5479L101.283 95.9597L108.854 79.2059L107.942 78.7941Z" fill="black"/>
<path d="M124.866 95.9304C124.768 96.1888 124.48 96.3191 124.221 96.2216L120.011 94.6321C119.753 94.5346 119.623 94.2461 119.72 93.9878C119.818 93.7294 120.106 93.5991 120.365 93.6966L124.107 95.1095L125.52 91.3673C125.617 91.1089 125.906 90.9786 126.164 91.0761C126.422 91.1737 126.553 91.4622 126.455 91.7205L124.866 95.9304ZM117.283 78.7941L124.854 95.5479L123.942 95.9597L116.372 79.2059L117.283 78.7941Z" fill="black"/>
<rect x="102.5" y="58.5" width="20" height="20" rx="10" fill="#22D3EE" stroke="black"/>
<rect x="102.5" y="58.5" width="20" height="20" rx="10" fill="#22D3EE" stroke="black"/>
<rect x="102.5" y="58.5" width="20" height="20" rx="10" fill="#34D399" stroke="black"/>
<rect x="156.5" y="32.5" width="19" height="19" fill="#E4E4E7" stroke="black"/>
<rect x="174.5" y="32.5" width="19" height="19" fill="#E4E4E7" stroke="black"/>
<rect x="192.5" y="32.5" width="19" height="19" fill="#E4E4E7" stroke="black"/>
<rect x="210.5" y="32.5" width="19" height="19" fill="#E4E4E7" stroke="black"/>
<rect x="156.5" y="51.5" width="19" height="19" fill="#E4E4E7" stroke="black"/>
<rect x="174.5" y="51.5" width="19" height="19" fill="#E4E4E7" stroke="black"/>
<rect x="192.5" y="51.5" width="19" height="19" fill="#E4E4E7" stroke="black"/>
<rect x="210.5" y="51.5" width="19" height="19" fill="#E4E4E7" stroke="black"/>
<rect x="156.5" y="69.5" width="19" height="19" fill="#E4E4E7" stroke="black"/>
<rect x="174.5" y="69.5" width="19" height="19" fill="#E4E4E7" stroke="black"/>
<rect x="192.5" y="69.5" width="19" height="19" fill="#E4E4E7" stroke="black"/>
<rect x="210.5" y="69.5" width="19" height="19" fill="#E4E4E7" stroke="black"/>
<rect x="156.5" y="88.5" width="19" height="19" fill="#E4E4E7" stroke="black"/>
<rect x="174.5" y="88.5" width="19" height="19" fill="#E4E4E7" stroke="black"/>
<rect x="192.5" y="88.5" width="19" height="19" fill="#E4E4E7" stroke="black"/>
<rect x="210.5" y="88.5" width="19" height="19" fill="#E4E4E7" stroke="black"/>
</svg>
