<svg width="256" height="144" viewBox="0 0 256 144" fill="none" xmlns="http://www.w3.org/2000/svg">
<rect width="256" height="144" fill="#E4E4E7"/>
<path opacity="0.5" d="M148.417 55.5H107.583C105.263 55.5 103.037 56.4219 101.396 58.0628C99.7552 59.7038 98.8333 61.9294 98.8333 64.25V72.1833L118.775 78.8333H137.225L157.167 72.1833V64.25C157.167 61.9294 156.245 59.7038 154.604 58.0628C152.963 56.4219 150.737 55.5 148.417 55.5Z" fill="#22D3EE"/>
<path d="M122.167 55.5V52.5833H133.833V55.5H139.667V52.5833C139.667 51.0362 139.052 49.5525 137.958 48.4585C136.864 47.3646 135.38 46.75 133.833 46.75H122.167C120.62 46.75 119.136 47.3646 118.042 48.4585C116.948 49.5525 116.333 51.0362 116.333 52.5833V55.5H122.167ZM118.775 78.8333L98.8333 72.1833V90.5C98.8357 92.8199 99.7583 95.0442 101.399 96.6846C103.039 98.3251 105.263 99.2477 107.583 99.25H148.417C150.737 99.2477 152.961 98.3251 154.601 96.6846C156.242 95.0442 157.164 92.8199 157.167 90.5V72.1833L137.225 78.8333H118.775Z" fill="#155E75"/>
<path d="M127.25 74.847C126.314 75.103 125.75 75.822 125.75 76.5C125.75 77.178 126.314 77.897 127.25 78.152V74.847ZM128.75 79.848V83.152C129.686 82.897 130.25 82.178 130.25 81.5C130.25 80.822 129.686 80.103 128.75 79.848Z" fill="#27272A"/>
<path fill-rule="evenodd" clip-rule="evenodd" d="M138 79C138 84.523 133.523 89 128 89C122.477 89 118 84.523 118 79C118 73.477 122.477 69 128 69C133.523 69 138 73.477 138 79ZM128 72.25C128.199 72.25 128.39 72.329 128.53 72.4697C128.671 72.6103 128.75 72.8011 128.75 73V73.317C130.38 73.609 131.75 74.834 131.75 76.5C131.75 76.6989 131.671 76.8897 131.53 77.0303C131.39 77.171 131.199 77.25 131 77.25C130.801 77.25 130.61 77.171 130.47 77.0303C130.329 76.8897 130.25 76.6989 130.25 76.5C130.25 75.822 129.686 75.103 128.75 74.847V78.317C130.38 78.609 131.75 79.834 131.75 81.5C131.75 83.166 130.38 84.391 128.75 84.683V85C128.75 85.1989 128.671 85.3897 128.53 85.5303C128.39 85.671 128.199 85.75 128 85.75C127.801 85.75 127.61 85.671 127.47 85.5303C127.329 85.3897 127.25 85.1989 127.25 85V84.683C125.62 84.391 124.25 83.166 124.25 81.5C124.25 81.3011 124.329 81.1103 124.47 80.9697C124.61 80.829 124.801 80.75 125 80.75C125.199 80.75 125.39 80.829 125.53 80.9697C125.671 81.1103 125.75 81.3011 125.75 81.5C125.75 82.178 126.314 82.897 127.25 83.152V79.683C125.62 79.391 124.25 78.166 124.25 76.5C124.25 74.834 125.62 73.609 127.25 73.317V73C127.25 72.8011 127.329 72.6103 127.47 72.4697C127.61 72.329 127.801 72.25 128 72.25Z" fill="#27272A"/>
<rect x="44.5" y="22.5" width="30.8072" height="29" fill="#F87171" stroke="black"/>
<path d="M44.5 93.5H75.3072V122.5H44.5V93.5Z" fill="#34D399" stroke="black"/>
<rect x="181.5" y="22.5" width="30.8072" height="29" fill="#818CF8" stroke="black"/>
<rect x="181.5" y="93.5" width="30.8072" height="29" fill="#FACC15" stroke="black"/>
<path d="M59.25 32.847C58.314 33.103 57.75 33.822 57.75 34.5C57.75 35.178 58.314 35.897 59.25 36.152V32.847ZM60.75 37.848V41.152C61.686 40.897 62.25 40.178 62.25 39.5C62.25 38.822 61.686 38.103 60.75 37.848Z" fill="#27272A"/>
<path fill-rule="evenodd" clip-rule="evenodd" d="M70 37C70 42.523 65.523 47 60 47C54.477 47 50 42.523 50 37C50 31.477 54.477 27 60 27C65.523 27 70 31.477 70 37ZM60 30.25C60.1989 30.25 60.3897 30.329 60.5303 30.4697C60.671 30.6103 60.75 30.8011 60.75 31V31.317C62.38 31.609 63.75 32.834 63.75 34.5C63.75 34.6989 63.671 34.8897 63.5303 35.0303C63.3897 35.171 63.1989 35.25 63 35.25C62.8011 35.25 62.6103 35.171 62.4697 35.0303C62.329 34.8897 62.25 34.6989 62.25 34.5C62.25 33.822 61.686 33.103 60.75 32.847V36.317C62.38 36.609 63.75 37.834 63.75 39.5C63.75 41.166 62.38 42.391 60.75 42.683V43C60.75 43.1989 60.671 43.3897 60.5303 43.5303C60.3897 43.671 60.1989 43.75 60 43.75C59.8011 43.75 59.6103 43.671 59.4697 43.5303C59.329 43.3897 59.25 43.1989 59.25 43V42.683C57.62 42.391 56.25 41.166 56.25 39.5C56.25 39.3011 56.329 39.1103 56.4697 38.9697C56.6103 38.829 56.8011 38.75 57 38.75C57.1989 38.75 57.3897 38.829 57.5303 38.9697C57.671 39.1103 57.75 39.3011 57.75 39.5C57.75 40.178 58.314 40.897 59.25 41.152V37.683C57.62 37.391 56.25 36.166 56.25 34.5C56.25 32.834 57.62 31.609 59.25 31.317V31C59.25 30.8011 59.329 30.6103 59.4697 30.4697C59.6103 30.329 59.8011 30.25 60 30.25Z" fill="#27272A"/>
<path d="M196.25 32.847C195.314 33.103 194.75 33.822 194.75 34.5C194.75 35.178 195.314 35.897 196.25 36.152V32.847ZM197.75 37.848V41.152C198.686 40.897 199.25 40.178 199.25 39.5C199.25 38.822 198.686 38.103 197.75 37.848Z" fill="#27272A"/>
<path fill-rule="evenodd" clip-rule="evenodd" d="M207 37C207 42.523 202.523 47 197 47C191.477 47 187 42.523 187 37C187 31.477 191.477 27 197 27C202.523 27 207 31.477 207 37ZM197 30.25C197.199 30.25 197.39 30.329 197.53 30.4697C197.671 30.6103 197.75 30.8011 197.75 31V31.317C199.38 31.609 200.75 32.834 200.75 34.5C200.75 34.6989 200.671 34.8897 200.53 35.0303C200.39 35.171 200.199 35.25 200 35.25C199.801 35.25 199.61 35.171 199.47 35.0303C199.329 34.8897 199.25 34.6989 199.25 34.5C199.25 33.822 198.686 33.103 197.75 32.847V36.317C199.38 36.609 200.75 37.834 200.75 39.5C200.75 41.166 199.38 42.391 197.75 42.683V43C197.75 43.1989 197.671 43.3897 197.53 43.5303C197.39 43.671 197.199 43.75 197 43.75C196.801 43.75 196.61 43.671 196.47 43.5303C196.329 43.3897 196.25 43.1989 196.25 43V42.683C194.62 42.391 193.25 41.166 193.25 39.5C193.25 39.3011 193.329 39.1103 193.47 38.9697C193.61 38.829 193.801 38.75 194 38.75C194.199 38.75 194.39 38.829 194.53 38.9697C194.671 39.1103 194.75 39.3011 194.75 39.5C194.75 40.178 195.314 40.897 196.25 41.152V37.683C194.62 37.391 193.25 36.166 193.25 34.5C193.25 32.834 194.62 31.609 196.25 31.317V31C196.25 30.8011 196.329 30.6103 196.47 30.4697C196.61 30.329 196.801 30.25 197 30.25Z" fill="#27272A"/>
<path d="M196.25 103.847C195.314 104.103 194.75 104.822 194.75 105.5C194.75 106.178 195.314 106.897 196.25 107.152V103.847ZM197.75 108.848V112.152C198.686 111.897 199.25 111.178 199.25 110.5C199.25 109.822 198.686 109.103 197.75 108.848Z" fill="#27272A"/>
<path fill-rule="evenodd" clip-rule="evenodd" d="M207 108C207 113.523 202.523 118 197 118C191.477 118 187 113.523 187 108C187 102.477 191.477 98 197 98C202.523 98 207 102.477 207 108ZM197 101.25C197.199 101.25 197.39 101.329 197.53 101.47C197.671 101.61 197.75 101.801 197.75 102V102.317C199.38 102.609 200.75 103.834 200.75 105.5C200.75 105.699 200.671 105.89 200.53 106.03C200.39 106.171 200.199 106.25 200 106.25C199.801 106.25 199.61 106.171 199.47 106.03C199.329 105.89 199.25 105.699 199.25 105.5C199.25 104.822 198.686 104.103 197.75 103.847V107.317C199.38 107.609 200.75 108.834 200.75 110.5C200.75 112.166 199.38 113.391 197.75 113.683V114C197.75 114.199 197.671 114.39 197.53 114.53C197.39 114.671 197.199 114.75 197 114.75C196.801 114.75 196.61 114.671 196.47 114.53C196.329 114.39 196.25 114.199 196.25 114V113.683C194.62 113.391 193.25 112.166 193.25 110.5C193.25 110.301 193.329 110.11 193.47 109.97C193.61 109.829 193.801 109.75 194 109.75C194.199 109.75 194.39 109.829 194.53 109.97C194.671 110.11 194.75 110.301 194.75 110.5C194.75 111.178 195.314 111.897 196.25 112.152V108.683C194.62 108.391 193.25 107.166 193.25 105.5C193.25 103.834 194.62 102.609 196.25 102.317V102C196.25 101.801 196.329 101.61 196.47 101.47C196.61 101.329 196.801 101.25 197 101.25Z" fill="#27272A"/>
<path d="M59.25 103.847C58.314 104.103 57.75 104.822 57.75 105.5C57.75 106.178 58.314 106.897 59.25 107.152V103.847ZM60.75 108.848V112.152C61.686 111.897 62.25 111.178 62.25 110.5C62.25 109.822 61.686 109.103 60.75 108.848Z" fill="#27272A"/>
<path fill-rule="evenodd" clip-rule="evenodd" d="M70 108C70 113.523 65.523 118 60 118C54.477 118 50 113.523 50 108C50 102.477 54.477 98 60 98C65.523 98 70 102.477 70 108ZM60 101.25C60.1989 101.25 60.3897 101.329 60.5303 101.47C60.671 101.61 60.75 101.801 60.75 102V102.317C62.38 102.609 63.75 103.834 63.75 105.5C63.75 105.699 63.671 105.89 63.5303 106.03C63.3897 106.171 63.1989 106.25 63 106.25C62.8011 106.25 62.6103 106.171 62.4697 106.03C62.329 105.89 62.25 105.699 62.25 105.5C62.25 104.822 61.686 104.103 60.75 103.847V107.317C62.38 107.609 63.75 108.834 63.75 110.5C63.75 112.166 62.38 113.391 60.75 113.683V114C60.75 114.199 60.671 114.39 60.5303 114.53C60.3897 114.671 60.1989 114.75 60 114.75C59.8011 114.75 59.6103 114.671 59.4697 114.53C59.329 114.39 59.25 114.199 59.25 114V113.683C57.62 113.391 56.25 112.166 56.25 110.5C56.25 110.301 56.329 110.11 56.4697 109.97C56.6103 109.829 56.8011 109.75 57 109.75C57.1989 109.75 57.3897 109.829 57.5303 109.97C57.671 110.11 57.75 110.301 57.75 110.5C57.75 111.178 58.314 111.897 59.25 112.152V108.683C57.62 108.391 56.25 107.166 56.25 105.5C56.25 103.834 57.62 102.609 59.25 102.317V102C59.25 101.801 59.329 101.61 59.4697 101.47C59.6103 101.329 59.8011 101.25 60 101.25Z" fill="#27272A"/>
</svg>
