<svg width="256" height="144" viewBox="0 0 256 144" fill="none" xmlns="http://www.w3.org/2000/svg">
<rect width="256" height="144" fill="#E4E4E7"/>
<rect x="49.5" y="78.5" width="20.2048" height="19" fill="#F87171" stroke="black"/>
<rect x="69.741" y="78.5" width="20.2048" height="19" fill="#34D399" stroke="black"/>
<rect x="89.0181" y="78.5" width="20.2048" height="19" fill="#818CF8" stroke="black"/>
<rect x="108.295" y="78.5" width="20.2048" height="19" fill="#FACC15" stroke="black"/>
<rect x="128.5" y="78.5" width="20.2048" height="19" fill="#A3E635" stroke="black"/>
<rect x="148.741" y="78.5" width="20.2048" height="19" fill="#E879F9" stroke="black"/>
<rect x="168.018" y="78.5" width="20.2048" height="19" fill="#22D3EE" stroke="black"/>
<rect x="187.295" y="78.5" width="20.2048" height="19" fill="#FB923C" stroke="black"/>
<path d="M142 57C139.348 57 136.804 55.9464 134.929 54.0711C133.054 52.1957 132 49.6522 132 47C132 44.3478 133.054 41.8043 134.929 39.9289C136.804 38.0536 139.348 37 142 37C144.652 37 147.196 38.0536 149.071 39.9289C150.946 41.8043 152 44.3478 152 47C152 49.6522 150.946 52.1957 149.071 54.0711C147.196 55.9464 144.652 57 142 57ZM144 44C144 44.28 143.79 44.8 143.58 45L142 46.58C141.43 47.16 141 48.18 141 49V50H143V49C143 48.71 143.21 48.2 143.42 48L145 46.42C145.57 45.84 146 44.82 146 44C146 42.9391 145.579 41.9217 144.828 41.1716C144.078 40.4214 143.061 40 142 40C140.939 40 139.922 40.4214 139.172 41.1716C138.421 41.9217 138 42.9391 138 44H140C140 43.4696 140.211 42.9609 140.586 42.5858C140.961 42.2107 141.47 42 142 42C142.53 42 143.039 42.2107 143.414 42.5858C143.789 42.9609 144 43.4696 144 44ZM141 52V54H143V52H141Z" fill="#3F3F46"/>
<rect x="105.5" y="37.5" width="20.2048" height="19" fill="#22D3EE" stroke="black"/>
</svg>
