<svg width="256" height="144" viewBox="0 0 256 144" fill="none" xmlns="http://www.w3.org/2000/svg">
<rect width="256" height="144" fill="#E4E4E7"/>
<rect x="53.5" y="67.5" width="30.7422" height="29" fill="#F87171" stroke="black"/>
<rect x="83.7994" y="67.5" width="30.7422" height="29" fill="#34D399" stroke="black"/>
<rect x="112.656" y="67.5" width="30.7422" height="29" fill="#818CF8" stroke="black"/>
<rect x="141.512" y="67.5" width="30.7422" height="29" fill="#FACC15" stroke="black"/>
<rect x="171.758" y="67.5" width="30.7422" height="29" fill="#A3E635" stroke="black"/>
<path d="M72.3809 55.7539C72.3809 56.3047 72.3164 56.791 72.1875 57.2129C72.0625 57.6309 71.8809 57.9805 71.6426 58.2617C71.4043 58.5469 71.1133 58.7617 70.7695 58.9062C70.4258 59.0508 70.0391 59.123 69.6094 59.123C69.1836 59.123 68.7988 59.0508 68.4551 58.9062C68.1113 58.7617 67.8203 58.5469 67.582 58.2617C67.3398 57.9805 67.1523 57.6309 67.0195 57.2129C66.8906 56.791 66.8262 56.3047 66.8262 55.7539V53.7148C66.8262 53.1641 66.8906 52.6797 67.0195 52.2617C67.1484 51.8398 67.334 51.4863 67.5762 51.2012C67.8145 50.9199 68.1035 50.707 68.4434 50.5625C68.7871 50.418 69.1719 50.3457 69.5977 50.3457C70.0273 50.3457 70.4141 50.418 70.7578 50.5625C71.1016 50.707 71.3945 50.9199 71.6367 51.2012C71.875 51.4863 72.0586 51.8398 72.1875 52.2617C72.3164 52.6797 72.3809 53.1641 72.3809 53.7148V55.7539ZM68.4668 55.0508L70.7402 53.3574C70.7324 53.0371 70.6973 52.7637 70.6348 52.5371C70.5762 52.3066 70.4883 52.123 70.3711 51.9863C70.2812 51.877 70.1699 51.7969 70.0371 51.7461C69.9082 51.6914 69.7617 51.6641 69.5977 51.6641C69.4141 51.6641 69.252 51.6992 69.1113 51.7695C68.9746 51.8359 68.8594 51.9375 68.7656 52.0742C68.6641 52.2188 68.5879 52.4062 68.5371 52.6367C68.4902 52.8672 68.4668 53.1406 68.4668 53.457V54.4004C68.4668 54.5879 68.4668 54.7129 68.4668 54.7754C68.4668 54.8379 68.4668 54.9297 68.4668 55.0508ZM70.7402 56V55.0098C70.7402 54.8809 70.7402 54.7871 70.7402 54.7285C70.7402 54.666 70.7402 54.5781 70.7402 54.4648L68.4668 56.1523C68.4746 56.4102 68.5 56.6387 68.543 56.8379C68.5898 57.0371 68.6543 57.2031 68.7363 57.3359C68.8301 57.4961 68.9492 57.6152 69.0938 57.6934C69.2383 57.7715 69.4102 57.8105 69.6094 57.8105C69.793 57.8105 69.9551 57.7773 70.0957 57.7109C70.2363 57.6406 70.3535 57.5352 70.4473 57.3945C70.5449 57.2461 70.6172 57.0566 70.6641 56.8262C70.7148 56.5918 70.7402 56.3164 70.7402 56ZM99.6375 59H97.991V52.4551L95.8348 53.2285V51.8105L99.5496 50.4688H99.6375V59ZM130.046 59H124.228V57.8867L126.988 54.9219C127.203 54.6875 127.384 54.4746 127.533 54.2832C127.681 54.0918 127.802 53.916 127.896 53.7559C127.986 53.5996 128.05 53.4531 128.089 53.3164C128.132 53.1797 128.154 53.0469 128.154 52.918C128.154 52.7266 128.127 52.5566 128.072 52.4082C128.017 52.2598 127.941 52.1328 127.843 52.0273C127.742 51.9258 127.621 51.8477 127.48 51.793C127.343 51.7383 127.191 51.7109 127.023 51.7109C126.804 51.7109 126.611 51.7422 126.443 51.8047C126.279 51.8633 126.142 51.9512 126.033 52.0684C125.92 52.1895 125.834 52.3398 125.775 52.5195C125.716 52.6992 125.687 52.9043 125.687 53.1348H124.052C124.052 52.7559 124.125 52.3984 124.269 52.0625C124.414 51.7227 124.619 51.4258 124.884 51.1719C125.146 50.918 125.463 50.7188 125.834 50.5742C126.209 50.4258 126.623 50.3516 127.076 50.3516C127.509 50.3516 127.892 50.4121 128.224 50.5332C128.56 50.6543 128.841 50.8242 129.068 51.043C129.291 51.2617 129.461 51.5254 129.578 51.834C129.695 52.1387 129.754 52.4766 129.754 52.8477C129.754 53.1289 129.709 53.3984 129.619 53.6562C129.533 53.9102 129.41 54.1621 129.25 54.4121C129.086 54.6621 128.89 54.918 128.664 55.1797C128.437 55.4375 128.185 55.709 127.908 55.9941L126.302 57.6934H130.046V59ZM154.93 54.0195H155.815C156.049 54.0195 156.25 53.9883 156.418 53.9258C156.59 53.8594 156.729 53.7676 156.834 53.6504C156.932 53.5488 157.004 53.4258 157.051 53.2812C157.102 53.1328 157.127 52.9727 157.127 52.8008C157.127 52.6328 157.102 52.4805 157.051 52.3438C157.004 52.2031 156.932 52.082 156.834 51.9805C156.737 51.8828 156.612 51.8066 156.459 51.752C156.311 51.6973 156.137 51.6699 155.938 51.6699C155.774 51.6699 155.62 51.6934 155.475 51.7402C155.334 51.7871 155.211 51.8535 155.106 51.9395C154.996 52.0293 154.911 52.1367 154.848 52.2617C154.786 52.3867 154.754 52.5273 154.754 52.6836H153.125C153.125 52.3359 153.196 52.0195 153.336 51.7344C153.481 51.4492 153.678 51.2031 153.928 50.9961C154.178 50.793 154.471 50.6348 154.807 50.5215C155.147 50.4082 155.512 50.3516 155.903 50.3516C156.325 50.3516 156.711 50.4043 157.063 50.5098C157.414 50.6113 157.715 50.7637 157.965 50.9668C158.215 51.1738 158.409 51.4297 158.545 51.7344C158.686 52.0352 158.756 52.3848 158.756 52.7832C158.756 52.9668 158.729 53.1484 158.674 53.3281C158.62 53.5039 158.539 53.6719 158.434 53.832C158.329 53.9922 158.198 54.1406 158.041 54.2773C157.885 54.4102 157.705 54.5254 157.502 54.623C157.741 54.709 157.946 54.8184 158.118 54.9512C158.293 55.084 158.438 55.2344 158.551 55.4023C158.664 55.5742 158.748 55.7617 158.803 55.9648C158.858 56.168 158.885 56.3828 158.885 56.6094C158.885 57.0078 158.809 57.3633 158.657 57.6758C158.504 57.9883 158.295 58.25 158.03 58.4609C157.764 58.6758 157.448 58.8398 157.08 58.9531C156.717 59.0625 156.325 59.1172 155.903 59.1172C155.539 59.1172 155.184 59.0684 154.836 58.9707C154.493 58.8691 154.186 58.7168 153.916 58.5137C153.647 58.3145 153.43 58.0625 153.266 57.7578C153.106 57.4531 153.026 57.0938 153.026 56.6797H154.655C154.655 56.8438 154.686 56.9961 154.748 57.1367C154.811 57.2734 154.901 57.3906 155.018 57.4883C155.131 57.5898 155.266 57.6699 155.422 57.7285C155.579 57.7832 155.75 57.8105 155.938 57.8105C156.149 57.8105 156.338 57.7812 156.506 57.7227C156.674 57.6641 156.815 57.5781 156.928 57.4648C157.037 57.3633 157.12 57.2383 157.174 57.0898C157.233 56.9414 157.262 56.7754 157.262 56.5918C157.262 56.3613 157.229 56.1641 157.162 56C157.096 55.8359 157 55.7012 156.875 55.5957C156.746 55.4902 156.592 55.4121 156.412 55.3613C156.237 55.3105 156.037 55.2852 155.815 55.2852H154.93V54.0195ZM186.868 55.8301H187.859V57.1484H186.868V59H185.239V57.1484H181.695L181.63 56.1289L185.216 50.4688H186.868V55.8301ZM183.23 55.8301H185.239V52.6602L185.081 52.9414L183.23 55.8301Z" fill="black"/>
</svg>
