<svg width="256" height="144" viewBox="0 0 256 144" fill="none" xmlns="http://www.w3.org/2000/svg">
<rect width="256" height="144" fill="#E4E4E7"/>
<rect x="22.5" y="59.5" width="24.5814" height="24" fill="#F87171" stroke="black"/>
<rect x="46.9186" y="59.5" width="24.5814" height="24" fill="#34D399" stroke="black"/>
<rect x="103.5" y="59.5" width="24.5814" height="24" fill="#F87171" stroke="black"/>
<rect x="127.919" y="59.5" width="24.5814" height="24" fill="#34D399" stroke="black"/>
<rect x="184.5" y="59.5" width="24.5814" height="24" fill="#F87171" stroke="black"/>
<rect x="208.919" y="59.5" width="24.5814" height="24" fill="#34D399" stroke="black"/>
<path d="M99.7071 72.7071C100.098 72.3166 100.098 71.6834 99.7071 71.2929L93.3431 64.9289C92.9526 64.5384 92.3195 64.5384 91.9289 64.9289C91.5384 65.3195 91.5384 65.9526 91.9289 66.3431L97.5858 72L91.9289 77.6569C91.5384 78.0474 91.5384 78.6805 91.9289 79.0711C92.3195 79.4616 92.9526 79.4616 93.3431 79.0711L99.7071 72.7071ZM77 73H99V71H77V73Z" fill="black"/>
<path d="M180.707 72.7071C181.098 72.3166 181.098 71.6834 180.707 71.2929L174.343 64.9289C173.953 64.5384 173.319 64.5384 172.929 64.9289C172.538 65.3195 172.538 65.9526 172.929 66.3431L178.586 72L172.929 77.6569C172.538 78.0474 172.538 78.6805 172.929 79.0711C173.319 79.4616 173.953 79.4616 174.343 79.0711L180.707 72.7071ZM158 73H180V71H158V73Z" fill="black"/>
</svg>
