<svg width="256" height="144" viewBox="0 0 256 144" fill="none" xmlns="http://www.w3.org/2000/svg">
<rect width="256" height="144" fill="#E4E4E7"/>
<rect x="166.5" y="95.229" width="17.5542" height="45.729" transform="rotate(-180 166.5 95.229)" fill="#F87171" stroke="black"/>
<rect x="148.789" y="95.229" width="17.5542" height="45.729" transform="rotate(-180 148.789 95.229)" fill="#34D399" stroke="black"/>
<rect x="131.922" y="95.229" width="17.5542" height="45.729" transform="rotate(-180 131.922 95.229)" fill="#818CF8" stroke="black"/>
<rect x="115.054" y="95.229" width="17.5542" height="45.729" transform="rotate(-180 115.054 95.229)" fill="#FACC15" stroke="black"/>
<line x1="166" y1="95.229" x2="181" y2="95.229" stroke="black"/>
<line x1="166" y1="49.4345" x2="181" y2="49.4345" stroke="black"/>
<line x1="82" y1="95.229" x2="97" y2="95.229" stroke="black"/>
<line x1="82" y1="49.4345" x2="97" y2="49.4345" stroke="black"/>
<path d="M76.7071 72.7071C77.0976 72.3166 77.0976 71.6834 76.7071 71.2929L70.3431 64.9289C69.9526 64.5384 69.3195 64.5384 68.9289 64.9289C68.5384 65.3195 68.5384 65.9526 68.9289 66.3431L74.5858 72L68.9289 77.6569C68.5384 78.0474 68.5384 78.6805 68.9289 79.0711C69.3195 79.4616 69.9526 79.4616 70.3431 79.0711L76.7071 72.7071ZM39 73H76V71H39V73Z" fill="black"/>
<path d="M218.707 72.7071C219.098 72.3166 219.098 71.6834 218.707 71.2929L212.343 64.9289C211.953 64.5384 211.319 64.5384 210.929 64.9289C210.538 65.3195 210.538 65.9526 210.929 66.3431L216.586 72L210.929 77.6569C210.538 78.0474 210.538 78.6805 210.929 79.0711C211.319 79.4616 211.953 79.4616 212.343 79.0711L218.707 72.7071ZM181 73H218V71H181V73Z" fill="black"/>
</svg>
