<svg width="256" height="144" viewBox="0 0 256 144" fill="none" xmlns="http://www.w3.org/2000/svg">
<rect width="256" height="144" fill="#E4E4E7"/>
<rect x="82.6402" y="53.5" width="17.5542" height="45.729" transform="rotate(90 82.6402 53.5)" fill="#F87171" stroke="black"/>
<rect x="82.6402" y="71.2108" width="17.5542" height="45.729" transform="rotate(90 82.6402 71.2108)" fill="#34D399" stroke="black"/>
<rect x="82.6402" y="88.0783" width="17.5542" height="45.729" transform="rotate(90 82.6402 88.0783)" fill="#818CF8" stroke="black"/>
<rect x="82.6402" y="104.946" width="17.5542" height="45.729" transform="rotate(90 82.6402 104.946)" fill="#FACC15" stroke="black"/>
<line x1="82.6402" y1="54" x2="82.6402" y2="39" stroke="black"/>
<line x1="36.8458" y1="54" x2="36.8458" y2="39" stroke="black"/>
<rect x="167.687" y="72.2108" width="17.5542" height="45.729" transform="rotate(90 167.687 72.2108)" fill="#34D399" stroke="black"/>
<rect x="167.687" y="89.0783" width="17.5542" height="45.729" transform="rotate(90 167.687 89.0783)" fill="#818CF8" stroke="black"/>
<rect x="167.687" y="105.946" width="17.5542" height="45.729" transform="rotate(90 167.687 105.946)" fill="#FACC15" stroke="black"/>
<line x1="167.687" y1="72" x2="167.687" y2="40" stroke="black"/>
<line x1="121.893" y1="72" x2="121.893" y2="40" stroke="black"/>
<path d="M60.243 29H61.243V28H60.243V29ZM59.5359 45.2071C59.9264 45.5976 60.5596 45.5976 60.9501 45.2071L67.3141 38.8431C67.7046 38.4526 67.7046 37.8195 67.3141 37.4289C66.9235 37.0384 66.2904 37.0384 65.8998 37.4289L60.243 43.0858L54.5861 37.4289C54.1956 37.0384 53.5624 37.0384 53.1719 37.4289C52.7814 37.8195 52.7814 38.4526 53.1719 38.8431L59.5359 45.2071ZM28 30H60.243V28H28V30ZM59.243 29V44.5H61.243V29H59.243Z" fill="black"/>
<path d="M144.822 29H143.822V28H144.822V29ZM177.773 28.2929C178.163 28.6834 178.163 29.3166 177.773 29.7071L171.409 36.0711C171.018 36.4616 170.385 36.4616 169.994 36.0711C169.604 35.6805 169.604 35.0474 169.994 34.6569L175.651 29L169.994 23.3431C169.604 22.9526 169.604 22.3195 169.994 21.9289C170.385 21.5384 171.018 21.5384 171.409 21.9289L177.773 28.2929ZM143.822 44.5V29H145.822V44.5H143.822ZM144.822 28H177.065V30H144.822V28Z" fill="black"/>
<rect x="227.5" y="20.5" width="17.5542" height="45.729" transform="rotate(90 227.5 20.5)" fill="#F87171" stroke="black"/>
</svg>
