<svg width="256" height="144" viewBox="0 0 256 144" fill="none" xmlns="http://www.w3.org/2000/svg">
<rect width="256" height="144" fill="#E4E4E7"/>
<rect x="117.5" y="25.5" width="20" height="20" rx="10" fill="#22D3EE" stroke="black"/>
<path d="M147.885 59.6377C147.872 59.9136 147.637 60.1263 147.361 60.113L142.867 59.8953C142.591 59.882 142.378 59.6475 142.391 59.3717C142.405 59.0959 142.639 58.8831 142.915 58.8965L146.91 59.09L147.104 55.0946C147.117 54.8188 147.352 54.6061 147.627 54.6194C147.903 54.6328 148.116 54.8672 148.103 55.143L147.885 59.6377ZM135.4 45.664L147.756 59.2775L147.015 59.9496L134.659 46.336L135.4 45.664Z" fill="black"/>
<path d="M107.53 59.6377C107.544 59.9136 107.778 60.1263 108.054 60.113L112.548 59.8953C112.824 59.882 113.037 59.6475 113.024 59.3717C113.01 59.0959 112.776 58.8831 112.5 58.8965L108.505 59.09L108.311 55.0946C108.298 54.8188 108.064 54.6061 107.788 54.6194C107.512 54.6328 107.299 54.8672 107.313 55.143L107.53 59.6377ZM120.015 45.664L107.659 59.2775L108.4 59.9496L120.756 46.336L120.015 45.664Z" fill="black"/>
<rect x="87.5" y="56.5" width="20" height="20" rx="10" fill="#22D3EE" stroke="black"/>
<rect x="72.5" y="95.5" width="20" height="20" rx="10" fill="#818CF8" stroke="black"/>
<rect x="103.5" y="95.5" width="20" height="20" rx="10" fill="#A3E635" stroke="black"/>
<path d="M85.36 93.9304C85.4575 94.1888 85.746 94.3191 86.0044 94.2216L90.2143 92.6321C90.4727 92.5346 90.603 92.2461 90.5055 91.9878C90.4079 91.7294 90.1194 91.5991 89.8611 91.6966L86.1189 93.1095L84.7061 89.3673C84.6085 89.1089 84.32 88.9786 84.0617 89.0761C83.8034 89.1737 83.673 89.4622 83.7705 89.7205L85.36 93.9304ZM92.9424 76.7941L85.3721 93.5479L86.2834 93.9597L93.8537 77.2059L92.9424 76.7941Z" fill="black"/>
<path d="M109.866 93.9304C109.768 94.1888 109.48 94.3191 109.221 94.2216L105.012 92.6321C104.753 92.5346 104.623 92.2461 104.72 91.9878C104.818 91.7294 105.106 91.5991 105.365 91.6966L109.107 93.1095L110.52 89.3673C110.617 89.1089 110.906 88.9786 111.164 89.0761C111.422 89.1737 111.553 89.4622 111.455 89.7205L109.866 93.9304ZM102.283 76.7941L109.854 93.5479L108.942 93.9597L101.372 77.2059L102.283 76.7941Z" fill="black"/>
<rect x="87.5" y="56.5" width="20" height="20" rx="10" fill="#22D3EE" stroke="black"/>
<rect x="87.5" y="56.5" width="20" height="20" rx="10" fill="#22D3EE" stroke="black"/>
<rect x="87.5" y="56.5" width="20" height="20" rx="10" fill="#F87171" stroke="black"/>
<rect x="148.5" y="58.5" width="20" height="20" rx="10" fill="#22D3EE" stroke="black"/>
<rect x="133.5" y="97.5" width="20" height="20" rx="10" fill="#FACC15" stroke="black"/>
<rect x="164.5" y="97.5" width="20" height="20" rx="10" fill="#A8A29E" stroke="black"/>
<path d="M146.36 95.9304C146.458 96.1888 146.746 96.3191 147.004 96.2216L151.214 94.6321C151.473 94.5346 151.603 94.2461 151.505 93.9878C151.408 93.7294 151.119 93.5991 150.861 93.6966L147.119 95.1095L145.706 91.3673C145.609 91.1089 145.32 90.9786 145.062 91.0761C144.803 91.1737 144.673 91.4622 144.771 91.7205L146.36 95.9304ZM153.942 78.7941L146.372 95.5479L147.283 95.9597L154.854 79.2059L153.942 78.7941Z" fill="black"/>
<path d="M170.866 95.9304C170.768 96.1888 170.48 96.3191 170.221 96.2216L166.012 94.6321C165.753 94.5346 165.623 94.2461 165.72 93.9878C165.818 93.7294 166.106 93.5991 166.365 93.6966L170.107 95.1095L171.52 91.3673C171.617 91.1089 171.906 90.9786 172.164 91.0761C172.422 91.1737 172.553 91.4622 172.455 91.7205L170.866 95.9304ZM163.283 78.7941L170.854 95.5479L169.942 95.9597L162.372 79.2059L163.283 78.7941Z" fill="black"/>
<rect x="148.5" y="58.5" width="20" height="20" rx="10" fill="#22D3EE" stroke="black"/>
<rect x="148.5" y="58.5" width="20" height="20" rx="10" fill="#22D3EE" stroke="black"/>
<rect x="148.5" y="58.5" width="20" height="20" rx="10" fill="#34D399" stroke="black"/>
</svg>
